Coordinates
version=1
nRows=22
nColumns=32
inDegrees=yes

Units are S.I. units (second, meters, Newtons, ...)
If the header above contains a line with 'inDegrees', this indicates whether rotational values are in degrees (yes) or radians (no).

endheader
time	pelvis_tilt	pelvis_list	pelvis_rotation	pelvis_tx	pelvis_ty	pelvis_tz	hip_flexion_r	hip_adduction_r	hip_rotation_r	knee_angle_r	ankle_angle_r	subtalar_angle_r	mtp_angle_r	hip_flexion_l	hip_adduction_l	hip_rotation_l	knee_angle_l	ankle_angle_l	subtalar_angle_l	mtp_angle_l	lumbar_extension	lumbar_bending	lumbar_rotation	arm_flex_r	arm_add_r	arm_rot_r	elbow_flex_r	arm_flex_l	arm_add_l	arm_rot_l	elbow_flex_l
      3.75000000	     -9.31443280	     -5.45701369	      0.66849871	      0.19138282	      0.85928484	     -0.19675996	     36.44069726	      2.66549627	    -13.95113872	    -34.31604388	      3.30947484	    -10.35873304	      0.00000000	      2.34908610	     -6.31034243	     -7.90343892	    -35.75126761	     -0.47826552	    -30.00007015	      0.00000000	      3.56320585	     12.44459133	     -1.16716659	      0.00000000	      0.00000000	      0.00000000	      0.00000000	      0.00000000	      0.00000000	      0.00000000	      0.00000000
      3.76000000	     -9.24917576	     -6.58640874	     -0.01882020	      0.20173030	      0.85962720	     -0.19462953	     35.55693010	      4.31829172	    -13.65839052	    -34.09283415	      3.71638190	    -10.25531022	      0.00000000	      3.30409569	     -7.73161958	     -7.72930811	    -39.04497573	     -1.28794386	    -30.00007015	      0.00000000	      3.32517624	     14.19341631	     -0.60055886	      0.00000000	      0.00000000	      0.00000000	      0.00000000	      0.00000000	      0.00000000	      0.00000000	      0.00000000
      3.77000000	     -9.07045531	     -7.28366270	     -0.42959244	      0.21223149	      0.86056955	     -0.19379304	     34.36078737	      5.42709702	    -13.25777048	    -33.58589450	      4.30638986	    -10.40047339	      0.00000000	      4.23602155	     -8.70898888	     -7.79563879	    -41.94081407	     -1.87728979	    -30.00007015	      0.00000000	      2.96689034	     15.50535961	     -0.31217198	      0.00000000	      0.00000000	      0.00000000	      0.00000000	      0.00000000	      0.00000000	      0.00000000	      0.00000000
      3.78000000	     -8.84235286	     -7.96384010	     -0.73238218	      0.22214699	      0.86153392	     -0.19313270	     33.27167101	      6.29924577	    -13.26619002	    -33.36701687	      4.85782919	    -10.49792131	      0.00000000	      5.26601890	     -9.42962025	     -7.04188501	    -44.81405543	     -3.79537941	    -30.00007015	      0.00000000	      2.46310659	     16.72292963	      0.18090572	      0.00000000	      0.00000000	      0.00000000	      0.00000000	      0.00000000	      0.00000000	      0.00000000	      0.00000000
      3.79000000	     -8.77345206	     -8.28615985	     -1.01604765	      0.23099052	      0.86239421	     -0.19185736	     32.46427784	      6.83425020	    -13.10963973	    -33.22142900	      5.19202831	    -10.45571927	      0.00000000	      6.71943166	     -9.89078108	     -6.54294091	    -47.61381126	     -4.84193284	    -30.00007015	      0.00000000	      1.94245847	     17.40806694	      0.63726645	      0.00000000	      0.00000000	      0.00000000	      0.00000000	      0.00000000	      0.00000000	      0.00000000	      0.00000000
      3.80000000	     -8.95556630	     -8.93218661	     -1.12446210	      0.23963903	      0.86247202	     -0.19067265	     31.86484953	      7.65119455	    -13.18018317	    -32.87253991	      5.68001901	    -10.28231377	      0.00000000	      8.75733374	    -10.85570385	     -6.10284722	    -51.17386971	     -5.20521937	    -30.00007015	      0.00000000	      1.87012923	     18.33426150	      1.06994970	      0.00000000	      0.00000000	      0.00000000	      0.00000000	      0.00000000	      0.00000000	      0.00000000	      0.00000000
      3.81000000	     -9.61060955	     -9.77006955	     -0.66512680	      0.24788205	      0.86177835	     -0.19084310	     31.79943216	      8.14611942	    -14.22482967	    -32.56024988	      6.21620601	    -10.00341659	      0.00000000	     11.80152632	    -11.79215581	     -4.75360807	    -54.77032877	     -5.09223053	    -30.00007015	      0.00000000	      2.55046749	     19.56310956	      0.06000741	      0.00000000	      0.00000000	      0.00000000	      0.00000000	      0.00000000	      0.00000000	      0.00000000	      0.00000000
      3.82000000	    -10.33034536	    -10.12259095	     -0.02380049	      0.25601992	      0.86137866	     -0.19165233	     31.85570191	      7.91141376	    -15.62947307	    -32.39583479	      6.68648466	     -9.13508477	      0.00000000	     14.96230495	    -12.02489971	     -3.42164226	    -57.99805952	     -4.90461084	    -29.74008667	      0.00000000	      3.33824819	     20.11599169	     -0.44617857	      0.00000000	      0.00000000	      0.00000000	      0.00000000	      0.00000000	      0.00000000	      0.00000000	      0.00000000
      3.83000000	    -10.99957831	    -10.05976596	     -0.42960825	      0.26292361	      0.86062320	     -0.19029782	     32.19152055	      7.98787589	    -15.41516794	    -32.72089414	      7.26595547	     -8.90474985	      0.00000000	     18.00444921	    -12.05052920	     -3.15873091	    -61.08835317	     -5.32203538	    -29.24979932	      0.00000000	      3.50312768	     20.12247358	      0.77735353	      0.00000000	      0.00000000	      0.00000000	      0.00000000	      0.00000000	      0.00000000	      0.00000000	      0.00000000
      3.84000000	    -11.73002315	    -10.94560782	      0.40498280	      0.27160836	      0.85989529	     -0.19091744	     32.08782215	      8.31542272	    -17.00336601	    -32.25078253	      7.88164977	     -8.03422386	      0.00000000	     21.40615956	    -12.70425860	     -1.62861184	    -64.37528136	     -3.59146929	    -27.31968958	      0.00000000	      4.60816189	     21.18663389	     -0.83028699	      0.00000000	      0.00000000	      0.00000000	      0.00000000	      0.00000000	      0.00000000	      0.00000000	      0.00000000
      3.85000000	    -12.75926332	    -10.94392327	     -0.31505961	      0.27950562	      0.85896069	     -0.18824118	     32.52852082	      8.94197026	    -16.08478858	    -32.10167905	      8.49370086	     -7.83371490	      0.00000000	     24.63277113	    -13.17340705	     -2.07908122	    -66.88746601	     -3.46456309	    -26.94206150	      0.00000000	      5.26986563	     21.16569824	      0.15850970	      0.00000000	      0.00000000	      0.00000000	      0.00000000	      0.00000000	      0.00000000	      0.00000000	      0.00000000
      3.86000000	    -12.46025117	    -11.34980281	     -0.23107626	      0.28729881	      0.85943566	     -0.18755491	     31.59968496	      9.26792262	    -16.57482712	    -32.05283151	      8.78034377	     -7.68637383	      0.00000000	     26.81476209	    -13.79058825	     -1.97705228	    -69.62450540	     -3.08286182	    -26.88399335	      0.00000000	      4.49406924	     21.56450258	      0.71594813	      0.00000000	      0.00000000	      0.00000000	      0.00000000	      0.00000000	      0.00000000	      0.00000000	      0.00000000
      3.87000000	    -12.49843885	    -11.96708345	     -0.26817985	      0.29691618	      0.85995742	     -0.18642515	     30.56825786	     10.16398544	    -16.53650658	    -31.29489831	      9.27207975	     -7.38634104	      0.00000000	     29.08955266	    -14.75467856	     -1.99828832	    -71.80486443	     -2.45845458	    -26.96602650	      0.00000000	      4.41161238	     22.25926199	      0.87752203	      0.00000000	      0.00000000	      0.00000000	      0.00000000	      0.00000000	      0.00000000	      0.00000000	      0.00000000
      3.88000000	    -12.17355636	    -12.90719932	      0.40041243	      0.30779661	      0.86121491	     -0.18619494	     28.89977728	     11.02302629	    -17.52277210	    -30.07463312	      9.60125673	     -7.12374358	      0.00000000	     31.21957732	    -15.68597212	     -1.36086451	    -73.63643268	     -1.70066982	    -27.28812248	      0.00000000	      4.37024150	     23.23875978	      0.45144050	      0.00000000	      0.00000000	      0.00000000	      0.00000000	      0.00000000	      0.00000000	      0.00000000	      0.00000000
      3.89000000	    -12.23613862	    -12.72414374	     -0.49756989	      0.31453154	      0.86129715	     -0.18398094	     28.52407123	     11.47141702	    -16.07093205	    -30.33524272	      9.90536232	     -6.94090400	      0.00000000	     33.55915626	    -15.76576610	     -1.94029188	    -75.55573466	     -1.25026914	    -27.69966328	      0.00000000	      3.45443696	     23.02567631	      1.53532613	      0.00000000	      0.00000000	      0.00000000	      0.00000000	      0.00000000	      0.00000000	      0.00000000	      0.00000000
      3.90000000	    -11.79492196	    -12.87198169	     -0.85663684	      0.32480104	      0.86286538	     -0.18303261	     26.91752855	     11.93616052	    -15.66044297	    -29.65329780	     10.24236616	     -6.63724388	      0.00000000	     35.03758182	    -16.40424777	     -2.77733473	    -76.79374767	     -0.50494057	    -28.34103870	      0.00000000	      2.68117411	     23.22652072	      2.36641785	      0.00000000	      0.00000000	      0.00000000	      0.00000000	      0.00000000	      0.00000000	      0.00000000	      0.00000000
      3.91000000	    -10.96263110	    -13.66247485	     -0.57204554	      0.33595779	      0.86487842	     -0.18188169	     24.58143791	     12.95905941	    -15.87074257	    -28.26926748	     10.40195346	     -6.15700087	      0.00000000	     36.45513575	    -17.44099289	     -2.67044798	    -77.89640690	     -0.40639179	    -28.70769806	      0.00000000	      1.79331214	     23.99083699	      2.44267726	      0.00000000	      0.00000000	      0.00000000	      0.00000000	      0.00000000	      0.00000000	      0.00000000	      0.00000000
      3.92000000	    -10.82229644	    -13.09337379	     -1.68728975	      0.34354459	      0.86578430	     -0.17978418	     23.85135957	     12.87618324	    -14.47994845	    -28.57805438	     10.51931343	     -5.43284774	      0.00000000	     38.16241464	    -17.75958418	     -4.37321304	    -78.76273004	      0.02064351	    -28.76674760	      0.00000000	      0.60798610	     23.24360241	      3.96643271	      0.00000000	      0.00000000	      0.00000000	      0.00000000	      0.00000000	      0.00000000	      0.00000000	      0.00000000
      3.93000000	    -10.66616880	    -12.80737832	     -1.70232887	      0.35229050	      0.86734042	     -0.17842647	     22.70350667	     12.78340922	    -14.19850533	    -27.94781100	     10.58990747	     -5.32708044	      0.00000000	     40.01087765	    -17.55929085	     -4.86070888	    -79.11111392	      0.17011677	    -28.82858982	      0.00000000	      0.08161720	     22.73452204	      4.23004836	      0.00000000	      0.00000000	      0.00000000	      0.00000000	      0.00000000	      0.00000000	      0.00000000	      0.00000000
      3.94000000	     -9.76668524	    -13.23612371	     -1.10614735	      0.36290803	      0.86988347	     -0.17796877	     20.34620185	     13.22489891	    -14.76868316	    -26.55449893	     10.72761220	     -4.72066118	      0.00000000	     41.19734187	    -17.84184521	     -4.79300857	    -79.25346766	      0.55499926	    -28.63111871	      0.00000000	     -0.91428875	     22.99883295	      4.32209120	      0.00000000	      0.00000000	      0.00000000	      0.00000000	      0.00000000	      0.00000000	      0.00000000	      0.00000000
      3.95000000	    -10.04914141	    -12.03099147	     -2.01352862	      0.37013123	      0.87087259	     -0.17604945	     20.19019768	     12.28652254	    -13.70248483	    -26.99882142	     10.80131900	     -4.35318201	      0.00000000	     42.89237131	    -17.11780140	     -6.60259661	    -78.93647313	      0.77963902	    -27.91400155	      0.00000000	     -1.44229961	     21.44026870	      5.19826275	      0.00000000	      0.00000000	      0.00000000	      0.00000000	      0.00000000	      0.00000000	      0.00000000	      0.00000000
      3.96000000	     -9.93201304	    -11.92384782	     -2.09423043	      0.37884613	      0.87179649	     -0.17515119	     19.26877751	     12.14732514	    -13.81178501	    -26.74357629	     10.82711770	     -4.29452792	      0.00000000	     44.68944239	    -17.07412997	     -7.17643137	    -78.55812355	      0.88740684	    -27.87171056	      0.00000000	     -1.99592140	     21.23151729	      5.29178621	      0.00000000	      0.00000000	      0.00000000	      0.00000000	      0.00000000	      0.00000000	      0.00000000	      0.00000000
